<?xml version="1.0" encoding="UTF-8"?>
<svg xmlns="http://www.w3.org/2000/svg" version="1.1" viewBox="0 0 12 24">
  <defs>
    <style>
      .cls-1 {
        fill: #fff;
      }

      .cls-2 {
        display: none;
      }
    </style>
  </defs>
  <!-- Generator: Adobe Illustrator 28.6.0, SVG Export Plug-In . SVG Version: 1.2.0 Build 709)  -->
  <g>
    <g id="Layer_1">
      <g id="Layer_1-2" data-name="Layer_1">
        <path class="cls-1" d="M6.51,4.8L.9,13.62c-.17.27.02.63.35.63h3.78c.25,0,.44.22.41.46l-.71,5.71c-.05.44.52.64.76.27l5.61-8.82c.17-.27-.02-.63-.35-.63h-3.78c-.25,0-.44-.22-.41-.46l.71-5.71c.05-.44-.52-.64-.76-.27Z"/>
        <g class="cls-2">
          <path class="cls-1" d="M1,10.67V3.89c0-.63.51-1.14,1.14-1.14h7.73c.63,0,1.14.51,1.14,1.14v5.9c.38.05.72.21,1,.45V3.89c0-1.18-.96-2.14-2.14-2.14h-.43c-.22-.86-.99-1.5-1.92-1.5h-3.03c-.93,0-1.7.64-1.92,1.5h-.43C.96,1.75,0,2.71,0,3.89v8.36l1-1.57h0Z"/>
          <path class="cls-1" d="M11,14.83v6.78c0,.63-.51,1.14-1.14,1.14H2.14c-.63,0-1.14-.51-1.14-1.14v-5.9C.62,15.66.28,15.5,0,15.26v6.35C0,22.79.96,23.75,2.14,23.75h7.73c1.18,0,2.14-.96,2.14-2.14v-8.36l-1,1.57h-.01Z"/>
        </g>
      </g>
    </g>
  </g>
</svg>