<?xml version="1.0" encoding="UTF-8"?>
<svg xmlns="http://www.w3.org/2000/svg" version="1.1" viewBox="0 0 14 27">
  <defs>
    <style>
      .cls-1 {
        fill: #fff;
        stroke: #000;
        stroke-miterlimit: 10;
      }
    </style>
  </defs>
  <!-- Generator: Adobe Illustrator 28.6.0, SVG Export Plug-In . SVG Version: 1.2.0 Build 709)  -->
  <g>
    <g id="Layer_1">
      <path d="M10.86,3c.63,0,1.14.51,1.14,1.14v19.73c0,.63-.51,1.14-1.14,1.14H3.14c-.63,0-1.14-.51-1.14-1.14V4.14c0-.63.51-1.14,1.14-1.14h7.73M10.86,2H3.14c-1.18,0-2.14.96-2.14,2.14v19.73c0,1.18.96,2.14,2.14,2.14h7.73c1.18,0,2.14-.96,2.14-2.14V4.14c0-1.18-.96-2.14-2.14-2.14h0Z"/>
      <path class="cls-1" d="M4,2.48c0-.82.66-1.48,1.48-1.48h3.03c.82,0,1.48.66,1.48,1.48"/>
      <path class="cls-1" d="M7.51,6.05L1.9,14.87c-.17.27.02.63.35.63h3.78c.25,0,.44.22.41.46l-.71,5.71c-.05.44.52.64.76.27l5.61-8.82c.17-.27-.02-.63-.35-.63h-3.78c-.25,0-.44-.22-.41-.46l.71-5.71c.05-.44-.52-.64-.76-.27Z"/>
    </g>
  </g>
</svg>