<svg enable-background="new 0 0 17.9 16.2" fill="none" height="24" viewBox="0 0 17.9 16.2" width="25" xmlns="http://www.w3.org/2000/svg"><path d="m7.9 16.2c-.3 0-.5-.1-.7-.3l-6.9-7.4c-.3-.3-.4-.8-.2-1.2.2-.3.7-.5 1.1-.5 0 0 1.6.2 2.8-.6 1.3-1 2.5-2.2 2.7-2.3 0 0 0 0 .1-.1-.1-.2 0-.4.2-.6l1.4-1.4c.6-.6 1.6-.6 2.1 0l1 1 2.5-2.4c.6-.6 1.6-.6 2.1 0l1.4 1.4c.6.6.6 1.6 0 2.1l-2.4 2.4 1 1c.3.3.4.7.4 1.1s-.2.8-.4 1.1l-1.4 1.5c-.1.1-.3.3-.5.3-.1.2-.4.5-.9.9-1 1.1-1.8 1.8-2.6 2.4-1 .8-1.9 1.2-2.2 1.4 0 0 0 0-.1 0-.2.2-.3.2-.5.2zm6.8-10.2c0 .1 0 .1 0 0zm-7.8-.8s0 .1 0 0z" fill="#fff"/><g fill="none" stroke="#404040"><path d="m1.4 8.2 6.4 6.9c.1.1.2.1.2 0 .4-.2 1.7-.9 3-2 1.4-1.3 2.2-2.2 2.5-2.5.1-.1.1-.2 0-.3l-5.9-5.8c-.1-.1-.2-.1-.3 0-.4.4-1.4 1.4-2.8 2.5-1.2.9-2.3.9-3 .9-.2 0-.3.2-.1.3z" fill="none" stroke="##colour##"/><path d="m14 6 2.8-2.8c.2-.2.2-.5 0-.7l-1.4-1.4c-.2-.2-.5-.2-.7 0l-2.8 2.8c-.2.2-.5.2-.7 0l-1.4-1.3c-.2-.2-.5-.2-.7 0l-1.4 1.3c-.2.2-.2.5 0 .7l5.6 5.6c.2.2.5.2.7 0l1.4-1.4c.2-.2.2-.5 0-.7l-1.4-1.3c-.2-.2-.2-.6 0-.8z" fill="none"/><path d="m4.5 7s-1 1.9 1.8 3 5.1 1.7 6.3 1.6-1.9 1.9-2.5 2.3-2.2 1.4-2.2 1.4l-6.9-7.5z" fill="##colour##" stroke="##colour##"/></g></svg>