<svg enable-background="new 0 0 24 24" viewBox="0 0 24 24" xmlns="http://www.w3.org/2000/svg"><path d="m21.6 18.5 1.1-1.1c.3-.3.4-.6.4-1s-.1-.7-.4-1l-.3-.3c-.5-.5-1.4-.5-2 0l-1.1 1.1-1.1-1.1c-.3-.3-.8-.4-1.2-.4l1.5-1.5c.1-.1.3-.2.4-.3l1.2-.7.1-.1c.5-.3.8-.7.8-1.3.1-.5-.1-1-.5-1.4l-6.3-6.3c-1.2-1.2-3.1-1.2-4.2 0-1-1.4-1.8-2.3-2.7-2.5-.5-.2-1.2-.1-1.8.3-1.3.9-1.2 2.9.6 6.4l-4.1 4.1c-1.2 1.2-1.2 3.1 0 4.3l5 5c.6.6 1.3.9 2.1.9s1.6-.3 2.1-.9l4.4-4.4v.2c0 .4.1.7.4 1l1.1 1.1-1.1 1c-.3.3-.4.6-.4 1s.1.7.4 1l.3.3c.5.5 1.4.5 2 0l1.1-1.1 1.1 1.1c.3.3.6.4 1 .4s.7-.1 1-.4l.3-.3c.3-.3.4-.6.4-1s-.1-.7-.4-1z" fill="#fff"/><g stroke="#404040" stroke-miterlimit="16.0535" stroke-width="1.6054"><path d="m13.2 4.4 6.3 6.3c.1.1.1.2 0 .2l-1.2.7c-.3.2-.5.4-.8.6l-7.4 7.4c-.6.6-1.5.6-2.1 0l-5-5c-.6-.6-.6-1.5 0-2.1l8.1-8.1c.6-.6 1.6-.6 2.1 0z" fill="none"/><path d="m11.6 9.8s-3.4-8.8-5.2-7.6c-1 .7 1.6 5.4 1.6 5.4" fill="none"/><circle cx="11.6" cy="9.8" fill="#404040" r=".7"/></g><path d="m22.1 16.1-.3-.3c-.2-.2-.6-.2-.9 0l-1.1 1.1c-.2.2-.6.2-.9 0l-1.1-1.1c-.2-.2-.6-.2-.9 0l-.3.3c-.2.2-.2.6 0 .9l1.1 1.1c.2.2.2.6 0 .9l-1.1 1.1c-.2.2-.2.6 0 .9l.3.3c.2.2.6.2.9 0l1.1-1.1c.2-.2.6-.2.9 0l1.1 1.1c.2.2.6.2.9 0l.3-.3c.2-.2.2-.6 0-.9l-1.1-1.1c-.2-.2-.2-.6 0-.9l1.1-1.1c.3-.3.3-.7 0-.9z" fill="#404040"/></svg>