<?xml version="1.0" encoding="utf-8"?>
<!-- Generator: Adobe Illustrator 25.4.1, SVG Export Plug-In . SVG Version: 6.00 Build 0)  -->
<svg version="1.1" id="Layer_1" xmlns="http://www.w3.org/2000/svg" xmlns:xlink="http://www.w3.org/1999/xlink" x="0px" y="0px"
	 viewBox="0 0 287.8 287.8" style="enable-background:new 0 0 287.8 287.8;" xml:space="preserve">
<style type="text/css">
	.st0{fill:#8E4747;}
</style>
<g id="Dbr">
	<g>
		<path class="st0" d="M247.1,11c16.4,0,29.7,13.3,29.7,29.7v206.4c0,16.4-13.3,29.7-29.7,29.7H40.7c-16.4,0-29.7-13.3-29.7-29.7
			V40.7C11,24.3,24.3,11,40.7,11L247.1,11 M247.1,0H40.7C18.2,0,0,18.2,0,40.7v206.4c0,22.5,18.2,40.7,40.7,40.7h206.4
			c22.5,0,40.7-18.2,40.7-40.7V40.7C287.8,18.2,269.6,0,247.1,0L247.1,0z"/>
	</g>
</g>
</svg>
