<?xml version="1.0" encoding="utf-8"?>
<!-- Generator: Adobe Illustrator 25.4.1, SVG Export Plug-In . SVG Version: 6.00 Build 0)  -->
<svg version="1.1" id="Layer_1" xmlns="http://www.w3.org/2000/svg" xmlns:xlink="http://www.w3.org/1999/xlink" x="0px" y="0px"
	 viewBox="0 0 287.8 287.8" style="enable-background:new 0 0 287.8 287.8;" xml:space="preserve">
<style type="text/css">
	.st0{fill:#8E4747;}
	
	@keyframes flash
	{
		0%  { fill:#8E4747 }
		27%  { fill:#8e4747 }
		30%  { fill:#36D648 }
		97%  { fill:#36D648 }
		100% {  fill:#8E4747 }
	}
	
	.st1 {   animation-duration: 7s;
	  animation-name: flash;
	  animation-iteration-count: infinite; }
	

</style>
<g id="Dbr">
	<g>
		<path class="st0" d="M247.1,11c16.4,0,29.7,13.3,29.7,29.7v206.4c0,16.4-13.3,29.7-29.7,29.7H40.7c-16.4,0-29.7-13.3-29.7-29.7
			V40.7C11,24.3,24.3,11,40.7,11L247.1,11 M247.1,0H40.7C18.2,0,0,18.2,0,40.7v206.4c0,22.5,18.2,40.7,40.7,40.7h206.4
			c22.5,0,40.7-18.2,40.7-40.7V40.7C287.8,18.2,269.6,0,247.1,0L247.1,0z"/>
	</g>
	
	<g>
		<g>
			<g>
				<path class="st1" d="M49.6,221.6c9.1,0,16.5,7.4,16.5,16.5s-7.4,16.5-16.5,16.5s-16.5-7.4-16.5-16.5S40.5,221.6,49.6,221.6
					 M49.6,210.6c-15.2,0-27.5,12.3-27.5,27.5s12.3,27.5,27.5,27.5s27.5-12.3,27.5-27.5S64.8,210.6,49.6,210.6L49.6,210.6z"/>
			</g>
		</g>
	</g>
</g>
</svg>
