<?xml version="1.0" encoding="utf-8"?>
<!-- Generator: Adobe Illustrator 25.0.1, SVG Export Plug-In . SVG Version: 6.00 Build 0)  -->
<svg version="1.1" id="Layer_1" xmlns="http://www.w3.org/2000/svg" xmlns:xlink="http://www.w3.org/1999/xlink" x="0px" y="0px"
	 viewBox="0 0 32 32" style="enable-background:new 0 0 32 32;" xml:space="preserve">
<style type="text/css">
	.st0{fill:#FFFFFF;}
</style>
<path class="st0" d="M27.1,16.4l-0.6-0.6c-0.4-0.4-1.2-0.4-1.6,0l-7.3,7.3V4.6c0-0.6-0.5-1.1-1.1-1.1h-0.9c-0.6,0-1.1,0.5-1.1,1.1
	v18.5l-7.3-7.3c-0.4-0.4-1.2-0.4-1.6,0l-0.6,0.6c-0.4,0.4-0.4,1.2,0,1.6l10.2,10.2c0.5,0.5,1.4,0.5,1.9,0L27.1,18
	C27.6,17.5,27.6,16.8,27.1,16.4z"/>
</svg>
