<?xml version="1.0" encoding="utf-8"?>
<svg version="1.1" xmlns="http://www.w3.org/2000/svg" xmlns:xlink="http://www.w3.org/1999/xlink" x="0px" y="0px"
	 viewBox="0 0 32 32" style="enable-background:new 0 0 32 32;" xml:space="preserve">
<style type="text/css">
	path {fill:none;stroke:#fff;stroke-width:2;stroke-linejoin:round;stroke-miterlimit:10;}
</style>
<path d="M4.9,21.6L22.1,4.4c1.6-1.6,3.4-0.8,4.9,0.7c0,0,0,0,0,0c1.6,1.6,2.3,3.4,0.7,4.9L10.6,27.3L4.2,28L4.9,21.6z"
	/>
<path d="M4.4,24.7L4.4,24.7c1.6,0.2,2.8,1.5,3.1,3.1l0,0"/>
<path d="M4.9,21.7c1.6-1.6,3.4-0.8,4.9,0.7c0,0,0,0,0,0c1.6,1.6,2.3,3.4,0.7,4.9"/>
</svg>
