<svg enable-background="new 0 0 24 24" height="24" viewBox="0 0 24 24" width="24" xmlns="http://www.w3.org/2000/svg"><path d="m7 20.8h-3.6c-1.2 0-2.2-.7-2.7-1.8s-.2-2.3.6-3.1l11.8-11.8c1-1 2.4-1.6 3.8-1.6h3.6c1.2 0 2.2.7 2.7 1.8s.2 2.3-.6 3.1l-11.8 11.8c-1 1-2.4 1.6-3.8 1.6zm9.9-16.8c-1 0-2 .4-2.8 1.1l-11.7 11.8c-.4.4-.5 1-.3 1.5s.7.9 1.3.9h3.6c1 0 2-.4 2.8-1.1l11.7-11.9c.4-.4.5-1 .3-1.5-.2-.5-.7-.8-1.3-.8z" fill="#fff"/><path d="m20.8 19.8h-11.4l2.7-2.7c.3-.3.6-.4 1-.4h7.7c.8 0 1.4.6 1.4 1.4v.3c0 .8-.6 1.4-1.4 1.4zm-7.8-1.5h7.7v-.1h-7.6z" fill="#fff"/><path d="m21.4 6.3-11.7 11.8c-.7.7-1.7 1.1-2.7 1.1h-3.6c-1.2 0-1.8-1.4-.9-2.3l11.7-11.7c.7-.8 1.7-1.2 2.7-1.2h3.6c1.2 0 1.8 1.5.9 2.3z" fill="none" stroke="#404040" stroke-miterlimit="16.0535" stroke-width="1.6054"/><path d="m6.5 13.2h8.1" fill="none" stroke="#404040" stroke-miterlimit="16.0535" stroke-width="1.6054"/><path d="m21.5 18.4c0 .4-.3.7-.7.7h-9.6l1.4-1.4c.1-.1.3-.2.5-.2h7.7c.4 0 .7.3.7.7z" fill="#404040"/></svg>