<svg enable-background="new 0 0 29.8 29.9" height="24" viewBox="0 0 29.8 29.9" width="24" xmlns="http://www.w3.org/2000/svg"><path d="m3.8 29.9c-.7 0-1.2-.3-1.7-.7l-1.4-1.4c-.5-.5-2-2 1.6-7.2l.2-.3 7.4-7.3-.8-.8c-.6-.6-.9-1.3-.9-2.1s.3-1.5.9-2.1l2.8-2.8c1.2-1.2 3.1-1.2 4.2 0l.7.7 5-5c1.1-1.1 3.1-1.1 4.2 0l2.8 2.8c.6.6.9 1.3.9 2.1s-.3 1.5-.9 2.1l-5 5.1.8.8c.6.6.9 1.3.9 2.1s-.3 1.5-.9 2.1l-2.9 2.7c-.5.5-1.3.8-2.1.8s-1.5-.3-2.1-.9l-.6-.6-7.5 7.5-.2.1c-2.6 1.7-4.3 2.3-5.4 2.3zm15.2-12.1s0 .1 0 0z" fill="#fff"/><g fill="none" stroke="#404040" stroke-miterlimit="20" stroke-width="2"><path d="m3.6 27.8c-.6-.6-.6-.6-1.4-1.4s1.8-4.7 1.8-4.7l8.7-8.7 4.3 4.3-8.8 8.7s-4 2.4-4.6 1.8z"/><path d="m21.8 12.2 5.7-5.7c.4-.4.4-1 0-1.4l-2.8-2.8c-.4-.4-1-.4-1.4 0l-5.7 5.7c-.4.4-1 .4-1.4 0l-1.4-1.4c-.4-.4-1-.4-1.4 0l-2.8 2.8c-.4.4-.4 1 0 1.4l8.5 8.5c.4.4 1 .4 1.4 0l2.8-2.6c.4-.4.4-1 0-1.4l-1.4-1.4c-.5-.5-.5-1.3-.1-1.7z"/></g></svg>