<?xml version="1.0" encoding="utf-8"?>
<!-- Generator: Adobe Illustrator 25.4.1, SVG Export Plug-In . SVG Version: 6.00 Build 0)  -->
<svg version="1.1" id="Layer_1" xmlns="http://www.w3.org/2000/svg" xmlns:xlink="http://www.w3.org/1999/xlink" x="0px" y="0px"
	 viewBox="0 0 32 32" style="enable-background:new 0 0 32 32;" xml:space="preserve">
<style type="text/css">
	.st0{opacity:0.5;fill:#FFFFFF;}
	.st1{fill:#FFFFFF;}
</style>
<path class="st0" d="M17.2,23c-3.9,0-7.2-3.2-7.2-7.2V12H9.6H9.3c-3,0-5.3,2.4-5.3,5.3v6.3c0,3,2.4,5.3,5.3,5.3h6.3
	c3,0,5.3-2.4,5.4-5.3V23H17.2z"/>
<g id="bottom_00000080174162659117952140000003932786812828954526_">
	<path class="st1" d="M23.6,21h-6.3c-3,0-5.4-2.4-5.4-5.4V9.3C12,6.4,14.4,4,17.3,4h0.2h6.1C26.6,4,29,6.4,29,9.4v6.3l0,0
		C29,18.6,26.6,21,23.6,21z"/>
</g>
</svg>
