<?xml version="1.0" encoding="utf-8"?>
<!-- Generator: Adobe Illustrator 25.4.1, SVG Export Plug-In . SVG Version: 6.00 Build 0)  -->
<svg version="1.1" id="Layer_1" xmlns="http://www.w3.org/2000/svg" xmlns:xlink="http://www.w3.org/1999/xlink" x="0px" y="0px"
	 viewBox="0 0 32 32" style="enable-background:new 0 0 32 32;" xml:space="preserve">
<style type="text/css">
	.st0{fill:none;stroke:#FFFFFF;stroke-width:2;stroke-miterlimit:10;stroke-dasharray:2;}
	.st1{fill:#FFFFFF;}
</style>
<g id="bottom_00000080174162659117952140000003932786812828954526_">
	<path class="st0" d="M13,9.7C13,7.1,15.1,5,17.7,5h0.2h5.4C25.9,5,28,7.1,28,9.7v5.6l0,0c0,2.6-2.1,4.7-4.7,4.7h-0.5"/>
</g>
<g id="bottom_00000152946258283389331040000008991408296945606586_">
	<path class="st1" d="M15.7,29H9.4c-3,0-5.4-2.4-5.4-5.4v-6.3C4,14.4,6.4,12,9.4,12h0.2h6.1c2.9,0,5.4,2.4,5.4,5.4v6.3l0,0
		C21,26.6,18.6,29,15.7,29z"/>
</g>
</svg>
