<?xml version="1.0" encoding="utf-8"?>
<!-- Generator: Adobe Illustrator 25.4.1, SVG Export Plug-In . SVG Version: 6.00 Build 0)  -->
<svg version="1.1" id="Layer_1" xmlns="http://www.w3.org/2000/svg" xmlns:xlink="http://www.w3.org/1999/xlink" x="0px" y="0px"
	 viewBox="0 0 32 32" style="enable-background:new 0 0 32 32;" xml:space="preserve">
<style type="text/css">
	.st0{opacity:0.5;}
	.st1{fill:#FFFFFF;}
	.st2{display:none;}
</style>
<g id="bottom" class="st0">
	<path class="st1" d="M15.6,29H9.4c-3,0-5.4-2.4-5.4-5.4v-6.3C4,14.4,6.4,12,9.4,12h0.2h6.1c2.9,0,5.3,2.4,5.3,5.4v6.3l0,0
		C21,26.6,18.6,29,15.6,29z"/>
</g>
<path id="top" class="st1" d="M17.1,22c-3.4,0-6.1-2.8-6.1-6.1V9.2C11,5.8,13.8,3,17.1,3h6.7C27.2,3,30,5.8,30,9.1v6.7
	c0,3.4-2.8,6.2-6.1,6.2H17.1z"/>
<path id="clipper" class="st2" d="M0,0v32h32V0H0z M31,15.8c0,3.9-3.2,7.2-7.2,7.2h-6.7c-3.9,0-7.2-3.2-7.2-7.2V9.2
	C10,5.2,13.2,2,17.2,2h6.7C27.8,2,31,5.2,31,9.2V15.8z"/>
</svg>
