<?xml version="1.0" encoding="utf-8"?>
<!-- Generator: Adobe Illustrator 25.4.1, SVG Export Plug-In . SVG Version: 6.00 Build 0)  -->
<svg version="1.1" id="Layer_1" xmlns="http://www.w3.org/2000/svg" xmlns:xlink="http://www.w3.org/1999/xlink" x="0px" y="0px"
	 viewBox="0 0 24 24" style="enable-background:new 0 0 24 24;" xml:space="preserve">
<style type="text/css">
	.st0{fill:#404040;}
</style>
<g>
	<g>
		<path class="st0" d="M11.3,17.9c-0.2,0-0.4-0.2-0.4-0.4V2.2c0-0.2,0.2-0.4,0.4-0.4h1.3c0.2,0,0.4,0.2,0.4,0.4v15.3
			c0,0.1-0.2,0.4-0.4,0.4H11.3z"/>
	</g>
	<g>
		<path class="st0" d="M12,19.8c-0.1,0-0.1,0-0.2-0.1l-8.6-8.2C3.1,11.4,3,11.4,3,11.3c0-0.1,0.1-0.3,0.2-0.4l0.9-1
			c0.1-0.1,0.2-0.1,0.3-0.1c0.1,0,0.3,0.1,0.4,0.2l6.2,5.9c0.3,0.3,0.6,0.4,1,0.4s0.8-0.2,1.1-0.4l6.2-5.9c0.1,0,0.2-0.1,0.3-0.1
			c0.1,0,0.2,0,0.3,0.1l0.8,1c0.2,0.2,0.2,0.5,0,0.7l-8.5,8C12.2,19.8,12.1,19.8,12,19.8z"/>
	</g>
</g>
<g>
	<path class="st0" d="M5.1,23.7c-0.2,0-0.4-0.2-0.4-0.4v-1.3c0-0.2,0.2-0.4,0.4-0.4h13.7c0.2,0,0.4,0.2,0.4,0.4v1.3
		c0,0.2,0,0.3,0,0.3c-0.1,0.1-0.2,0.1-0.3,0.1H5.1z"/>
</g>
</svg>
