<?xml version="1.0" encoding="utf-8"?>
<!-- Generator: Adobe Illustrator 25.4.1, SVG Export Plug-In . SVG Version: 6.00 Build 0)  -->
<svg version="1.1" id="Layer_1" xmlns="http://www.w3.org/2000/svg" xmlns:xlink="http://www.w3.org/1999/xlink" x="0px" y="0px"
	 viewBox="0 0 24 24" style="enable-background:new 0 0 24 24;" xml:space="preserve">
<style type="text/css">
	.st0{fill:#404040;stroke:#404040;stroke-width:0.25;stroke-miterlimit:10;}
</style>
<path class="st0" d="M1.7,21.1l4.4-4.4c0.1-0.1,0.2-0.3,0.2-0.5l0.2-3.3c0.1-1.3,0.6-2.6,1.6-3.6l7.5-7.5c0.3-0.3,0.7-0.3,1,0
	l0.5,0.5c0.3,0.3,0.3,0.7,0,1l-7.7,7.7c-0.5,0.5-0.8,1.2-0.8,1.8v0c0,1.4,1.2,2.6,2.6,2.6h0c0.7,0,1.3-0.3,1.8-0.8l7.8-7.7
	c0.3-0.3,0.7-0.3,1,0l0.6,0.6c0.3,0.3,0.3,0.7,0,1l-7.5,7.5c-0.9,0.9-2.2,1.5-3.5,1.6L8,18c-0.2,0-0.3,0.1-0.5,0.2l-4.4,4.4
	c-0.3,0.3-0.7,0.3-1,0l-0.5-0.5C1.4,21.8,1.4,21.3,1.7,21.1z"/>
</svg>
