<?xml version="1.0" encoding="utf-8"?>
<!-- Generator: Adobe Illustrator 25.4.1, SVG Export Plug-In . SVG Version: 6.00 Build 0)  -->
<svg version="1.1" id="Layer_1" xmlns="http://www.w3.org/2000/svg" xmlns:xlink="http://www.w3.org/1999/xlink" x="0px" y="0px"
	 viewBox="0 0 24 24" style="enable-background:new 0 0 24 24;" xml:space="preserve">
<style type="text/css">
	.st0{fill:#FFFFFF;}
	.st1{fill:none;stroke:#404040;stroke-width:1.6054;stroke-miterlimit:16.0535;}
	.st2{fill:#404040;stroke:#404040;stroke-width:1.6054;stroke-miterlimit:16.0535;}
	.st3{fill:#404040;}
</style>
<path class="st0" d="M21.6,18.5l1.1-1.1c0.3-0.3,0.4-0.6,0.4-1s-0.1-0.7-0.4-1l-0.3-0.3c-0.5-0.5-1.4-0.5-2,0l-1.1,1.1l-1.1-1.1
	c-0.3-0.3-0.8-0.4-1.2-0.4l1.5-1.5c0.1-0.1,0.3-0.2,0.4-0.3l1.2-0.7l0.1-0.1c0.5-0.3,0.8-0.7,0.8-1.3c0.1-0.5-0.1-1-0.5-1.4
	l-6.3-6.3c-1.2-1.2-3.1-1.2-4.2,0C9,1.7,8.2,0.8,7.3,0.6C6.8,0.4,6.1,0.5,5.5,0.9C4.2,1.8,4.3,3.8,6.1,7.3L2,11.4
	c-1.2,1.2-1.2,3.1,0,4.3l5,5c0.6,0.6,1.3,0.9,2.1,0.9s1.6-0.3,2.1-0.9l4.4-4.4v0.2c0,0.4,0.1,0.7,0.4,1l1.1,1.1l-1.1,1
	c-0.3,0.3-0.4,0.6-0.4,1s0.1,0.7,0.4,1l0.3,0.3c0.5,0.5,1.4,0.5,2,0l1.1-1.1l1.1,1.1c0.3,0.3,0.6,0.4,1,0.4s0.7-0.1,1-0.4l0.3-0.3
	c0.3-0.3,0.4-0.6,0.4-1s-0.1-0.7-0.4-1L21.6,18.5z"/>
<g>
	<path class="st1" d="M13.2,4.4l6.3,6.3c0.1,0.1,0.1,0.2,0,0.2l-1.2,0.7c-0.3,0.2-0.5,0.4-0.8,0.6l-7.4,7.4c-0.6,0.6-1.5,0.6-2.1,0
		l-5-5c-0.6-0.6-0.6-1.5,0-2.1l8.1-8.1C11.7,3.8,12.7,3.8,13.2,4.4z"/>
	<path class="st1" d="M11.6,9.8c0,0-3.4-8.8-5.2-7.6C5.4,2.9,8,7.6,8,7.6"/>
	<circle class="st2" cx="11.6" cy="9.8" r="0.7"/>
</g>
<path class="st3" d="M22.1,16.1l-0.3-0.3c-0.2-0.2-0.6-0.2-0.9,0l-1.1,1.1c-0.2,0.2-0.6,0.2-0.9,0l-1.1-1.1c-0.2-0.2-0.6-0.2-0.9,0
	l-0.3,0.3c-0.2,0.2-0.2,0.6,0,0.9l1.1,1.1c0.2,0.2,0.2,0.6,0,0.9l-1.1,1.1c-0.2,0.2-0.2,0.6,0,0.9l0.3,0.3c0.2,0.2,0.6,0.2,0.9,0
	l1.1-1.1c0.2-0.2,0.6-0.2,0.9,0l1.1,1.1c0.2,0.2,0.6,0.2,0.9,0l0.3-0.3c0.2-0.2,0.2-0.6,0-0.9L21,19c-0.2-0.2-0.2-0.6,0-0.9l1.1-1.1
	C22.4,16.7,22.4,16.3,22.1,16.1z"/>
</svg>
