<?xml version="1.0" encoding="utf-8"?>
<!-- Generator: Adobe Illustrator 25.4.1, SVG Export Plug-In . SVG Version: 6.00 Build 0)  -->
<svg version="1.1" id="Layer_1" xmlns="http://www.w3.org/2000/svg" xmlns:xlink="http://www.w3.org/1999/xlink" x="0px" y="0px"
	 viewBox="0 0 24 24" style="enable-background:new 0 0 24 24;" xml:space="preserve">
<style type="text/css">
	.st0{opacity:0.69;}
	.st1{fill:#404040;}
</style>
<g>
	<g class="st0">
		<path class="st1" d="M4.2,17.9c-0.1,0.5-0.6,0.8-1,0.7c-1.6-0.6-2.7-2.1-2.7-3.9V4.6c0-2.3,1.8-4.1,4.1-4.1h10.1
			c1.7,0,3.1,1,3.8,2.4c0.3,0.6-0.1,1.2-0.7,1.3l-0.5,0.1c-0.4,0-0.7-0.2-0.9-0.5c-0.4-0.7-1.1-1.1-2-1.1H5c-1.3,0-2.3,1-2.3,2.3
			v9.3c0,0.9,0.5,1.6,1.2,2c0.3,0.2,0.5,0.5,0.4,0.8L4.2,17.9z"/>
	</g>
	<g>
		<path class="st1" d="M9.2,23.4c-2.3,0-4.1-1.8-4.1-4.1V9.2c0-2.3,1.8-4.1,4.1-4.1h10.1c2.3,0,4.1,1.8,4.1,4.1v10.1
			c0,2.3-1.8,4.1-4.1,4.1H9.2z M9.6,7.3c-1.3,0-2.3,1-2.3,2.3v9.3c0,1.3,1,2.3,2.3,2.3h9.3c1.3,0,2.3-1,2.3-2.3V9.6
			c0-1.3-1-2.3-2.3-2.3H9.6z"/>
	</g>
	<g>
		<path class="st1" d="M13.8,19.1c-0.4,0-0.7-0.3-0.7-0.7l0-8.5c0-0.4,0.3-0.7,0.7-0.7h0.9c0.4,0,0.7,0.3,0.7,0.7l0,8.5
			c0,0.4-0.3,0.7-0.7,0.7H13.8z"/>
	</g>
	<g>
		<path class="st1" d="M10,15.3c-0.4,0-0.7-0.3-0.7-0.7v-0.9c0-0.4,0.3-0.7,0.7-0.7l8.5,0c0.4,0,0.7,0.3,0.7,0.7v1
			c0,0.3-0.3,0.6-0.6,0.6l0,0L10,15.3z"/>
	</g>
</g>
</svg>
