<?xml version="1.0" encoding="utf-8"?>
<!-- Generator: Adobe Illustrator 25.4.1, SVG Export Plug-In . SVG Version: 6.00 Build 0)  -->
<svg version="1.1" id="Layer_1" xmlns="http://www.w3.org/2000/svg" xmlns:xlink="http://www.w3.org/1999/xlink" x="0px" y="0px"
	 viewBox="0 0 24 24" style="enable-background:new 0 0 24 24;" xml:space="preserve">
<style type="text/css">
	.st0{fill:#563D3D;}
</style>
<path class="st0" d="M4.5,17.2L9,12.8c0.4-0.4,0.4-1.1,0-1.5L4.5,6.8c-0.4-0.4-0.4-1.1,0-1.5l0.8-0.8c0.4-0.4,1.1-0.4,1.5,0L11.2,9
	c0.4,0.4,1.1,0.4,1.5,0l4.5-4.5c0.4-0.4,1.1-0.4,1.5,0l0.7,0.8c0.4,0.4,0.4,1.1,0,1.5L15,11.2c-0.4,0.4-0.4,1.1,0,1.5l4.5,4.5
	c0.4,0.4,0.4,1.1,0,1.5l-0.8,0.8c-0.4,0.4-1.1,0.4-1.5,0L12.8,15c-0.4-0.4-1.1-0.4-1.5,0l-4.5,4.5c-0.4,0.4-1.1,0.4-1.5,0l-0.8-0.8
	C4.1,18.3,4.1,17.7,4.5,17.2z"/>
</svg>
