<?xml version="1.0" encoding="utf-8"?>
<!-- Generator: Adobe Illustrator 25.4.1, SVG Export Plug-In . SVG Version: 6.00 Build 0)  -->
<svg version="1.1" id="Layer_1" xmlns="http://www.w3.org/2000/svg" xmlns:xlink="http://www.w3.org/1999/xlink" x="0px" y="0px"
	 viewBox="0 0 24 24" style="enable-background:new 0 0 24 24;" xml:space="preserve">
<style type="text/css">
	.st0{fill:none;stroke:#00EAFF;stroke-width:1.6054;stroke-miterlimit:16.0535;}
	.st1{fill:none;stroke:#00EAFF;stroke-width:3;stroke-miterlimit:16.0535;}
</style>
<g>
	<path class="st0" d="M22.3,7.7c0.3-0.3,0.8-2.3-1.2-4.3s-3.9-1.6-4.3-1.2S1.6,17.4,1.6,17.4c-0.1,0.1-0.1,0.2-0.1,0.4l0.6,3.8
		c0.1,0.3,0.4,0.6,0.7,0.7l3.9,0.6c0.2,0,0.3,0,0.4-0.1C7.1,22.8,22,8,22.3,7.7z"/>
	<path class="st0" d="M1.6,17.4c0,0,1.7-0.2,3.7,1.8s1.8,3.7,1.8,3.7"/>
</g>
<g>
	<path class="st1" d="M1.5,15l5.6,5.8C7.1,20.8,22,6,22.3,5.7"/>
</g>
</svg>
