<svg enable-background="new 0 0 24 24" height="24" viewBox="0 0 24 24" width="24" xmlns="http://www.w3.org/2000/svg"><g fill="#fff"><path d="m21.6 9.6-7.2-7.2c-.6-.6-1.5-1-2.4-1-.9 0-1.8.4-2.4 1l-7.2 7.2c-.6.6-1 1.5-1 2.4s.4 1.8 1 2.4l7.2 7.2c.6.6 1.5 1 2.4 1s1.8-.4 2.4-1l7.2-7.2c1.4-1.3 1.4-3.5 0-4.8z"/><g stroke="#404040" stroke-miterlimit="16.0535" stroke-width="1.6054"><path d="m13.3 3.5 7.2 7.2c.7.7.7 1.9 0 2.7l-7.2 7.2c-.7.7-1.9.7-2.7 0l-7.2-7.2c-.7-.7-.7-1.9 0-2.7l7.2-7.2c.8-.8 2-.8 2.7 0z"/><circle cx="12" cy="12" r=".6"/><circle cx="12" cy="7.7" r=".6"/><circle cx="12" cy="16.3" r=".6"/><circle cx="16.3" cy="12" r=".6"/><circle cx="7.7" cy="12" r=".6"/></g></g></svg>