<?xml version="1.0" encoding="utf-8"?>
<!-- Generator: Adobe Illustrator 25.0.1, SVG Export Plug-In . SVG Version: 6.00 Build 0)  -->
<svg version="1.1" id="Layer_1" xmlns="http://www.w3.org/2000/svg" xmlns:xlink="http://www.w3.org/1999/xlink" x="0px" y="0px"
	 viewBox="0 0 32 32" style="enable-background:new 0 0 32 32;" xml:space="preserve">
<style type="text/css">
	.st0{fill:none;stroke:#FFFFFF;stroke-width:2;stroke-linecap:round;stroke-linejoin:round;stroke-miterlimit:10;}
	.st1{fill:#FFFFFF;}
</style>
<polyline class="st0" points="5.1,4.5 8.8,6.4 8.8,25.6 5.1,27.4 "/>
<polyline class="st0" points="12.6,27.4 8.8,25.5 8.8,6.4 12.6,4.6 "/>
<path class="st1" d="M28.6,15.6c0.7,0.6,1.1,1.6,1.1,2.9v4.9h-2.3v-1.1c-0.5,0.8-1.3,1.2-2.6,1.2c-0.7,0-1.2-0.1-1.7-0.3
	c-0.5-0.2-0.9-0.5-1.1-0.9c-0.3-0.4-0.4-0.8-0.4-1.4c0-0.8,0.3-1.4,0.9-1.9c0.6-0.5,1.5-0.7,2.8-0.7h2c0-0.5-0.2-1-0.5-1.3
	s-0.8-0.4-1.5-0.4c-0.5,0-0.9,0.1-1.4,0.2s-0.8,0.3-1.1,0.6l-0.9-1.8c0.5-0.3,1-0.6,1.7-0.8c0.7-0.2,1.3-0.3,2-0.3
	C26.8,14.6,27.9,14.9,28.6,15.6z M26.5,21.5c0.3-0.2,0.6-0.5,0.7-0.9v-0.9h-1.7c-1,0-1.5,0.3-1.5,1c0,0.3,0.1,0.6,0.4,0.8
	c0.3,0.2,0.6,0.3,1,0.3C25.7,21.8,26.1,21.7,26.5,21.5z"/>
<path class="st1" d="M16,12.1h-2.6l-1.8,4.1c-0.1,0.3-0.2,0.5-0.2,0.8V21h5.9l1,2.4H21L16,12.1z M12.9,19l1.8-4.3l1.8,4.3H12.9z"/>
</svg>
